<svg
  width="108"
  height="108"
  viewBox="0 0 108 108"
  fill="none"
  xmlns="http://www.w3.org/2000/svg"
>
<style>
  rect {
    fill: #fff;
  }
  path {
    fill: black;
  }

  @media (prefers-color-scheme: dark) {
    rect {
        fill: black;
    }
        
    path {
        fill: #fff;
    }
  }
</style>
  <g filter="url(#filter0_d_8_5)">
    <rect x="4" width="100" height="100" fill="white"></rect>
  </g>
  <path
    d="M10.9111 80.4395L7.32227 80.293H6.00391C5.51562 80.1465 5.00293 79.8535 4.46582 79.4141C3.87988 78.9746 3.44043 78.6572 3.14746 78.4619C2.85449 78.2666 2.70801 77.9248 2.70801 77.4365C2.70801 76.8994 2.90332 75.9961 3.29395 74.7266C12.8154 53.7793 22.0195 37.0312 30.9062 24.4824C31.8828 23.1152 33.4453 22.0898 35.5938 21.4062C37.791 20.6738 39.915 20.3076 41.9658 20.3076C43.1865 20.3076 43.7969 21.2598 43.7969 23.1641C43.7969 23.7012 43.6016 24.4336 43.2109 25.3613C42.8203 26.2402 41.8438 27.7051 40.2812 29.7559C38.7188 31.8066 36.8633 34.1504 34.7148 36.7871C32.5664 39.4238 31.3457 40.9375 31.0527 41.3281C37.7422 34.3945 43.7725 29.2432 49.1436 25.874C54.5635 22.4561 58.4697 20.7471 60.8623 20.7471C63.3037 20.7471 65.1592 21.4551 66.4287 22.8711C67.7471 24.2383 68.4062 25.7275 68.4062 27.3389C68.4062 28.9014 68.2842 30.2197 68.04 31.2939C67.8447 32.3193 67.4541 33.418 66.8682 34.5898C66.2822 35.7129 65.7695 36.6895 65.3301 37.5195C64.9395 38.3008 64.2559 39.3506 63.2793 40.6689C62.3027 41.9385 61.6191 42.8174 61.2285 43.3057C60.8867 43.7939 60.1299 44.7217 58.958 46.0889C57.835 47.4561 57.2246 48.2129 57.127 48.3594C58.4941 46.9922 60.3984 44.9658 62.8398 42.2803C65.2812 39.5947 67.332 37.3486 68.9922 35.542C70.7012 33.7354 72.8252 31.709 75.3643 29.4629C77.9033 27.168 80.2715 25.3125 82.4688 23.8965C87.7422 20.5762 93.0889 18.916 98.5088 18.916C100.364 18.916 101.927 19.502 103.196 20.6738C104.466 21.8457 105.101 23.2617 105.101 24.9219C105.101 26.5332 103.123 30.4395 99.168 36.6406C95.2129 42.793 91.2578 48.9941 87.3027 55.2441C83.3965 61.4453 81.4434 65.3516 81.4434 66.9629C81.4434 69.209 81.8584 70.5518 82.6885 70.9912C83.5186 71.3818 84.5195 71.5283 85.6914 71.4307C86.8633 71.333 88.499 70.5762 90.5986 69.1602C92.7471 67.7441 94.6514 66.2793 96.3115 64.7656C98.9971 62.3242 101.487 59.9561 103.782 57.6611C104.271 57.2217 104.808 57.002 105.394 57.002C106.321 57.002 106.883 57.71 107.078 59.126C107.273 60.542 107.371 62.0068 107.371 63.5205C107.371 65.0342 107.225 66.084 106.932 66.6699C105.516 69.4043 102.391 72.749 97.5566 76.7041C92.7227 80.6592 88.084 82.6367 83.6406 82.6367C83.1035 82.6367 82.7129 82.6123 82.4688 82.5635C77.4395 82.0752 73.9482 80.708 71.9951 78.4619C70.0908 76.167 69.1387 73.457 69.1387 70.332C69.1387 67.207 70.1885 63.4229 72.2881 58.9795C74.4365 54.5361 76.7803 50.5078 79.3193 46.8945C81.8584 43.2812 84.1777 40.0342 86.2773 37.1533C88.4258 34.2236 89.5 32.6367 89.5 32.3926C89.5 32.1484 89.3047 32.0264 88.9141 32.0264C87.4004 32.0264 84.0312 34.4678 78.8066 39.3506C69.8711 47.7002 62.1562 55.7568 55.6621 63.5205C53.9531 65.5713 49.9004 70.7715 43.5039 79.1211C42.7715 80.0977 41.5996 80.5859 39.9883 80.5859C38.4258 80.5859 36.79 80.293 35.0811 79.707C33.3721 79.0723 32.5176 78.2666 32.5176 77.29C32.5176 76.8018 36.3994 69.9658 44.1631 56.7822C51.9268 43.5498 55.8086 36.3477 55.8086 35.1758C55.8086 33.9551 55.0762 33.3447 53.6113 33.3447C52.1953 33.3447 49.2412 35.4932 44.749 39.79C32.3955 51.6064 22.8252 63.3496 16.0381 75.0195C15.5986 75.7031 14.7441 76.7773 13.4746 78.2422C12.2051 79.707 11.3506 80.4395 10.9111 80.4395Z"
    fill="black"
    fill-opacity="0.866667"
  >
  </path>
  <defs>
    <filter
      id="filter0_d_8_5"
      x="0"
      y="0"
      width="108"
      height="108"
      filterUnits="userSpaceOnUse"
      color-interpolation-filters="sRGB"
    >
      <feFlood flood-opacity="0" result="BackgroundImageFix"></feFlood>
      <feColorMatrix
        in="SourceAlpha"
        type="matrix"
        values="0 0 0 0 0 0 0 0 0 0 0 0 0 0 0 0 0 0 127 0"
        result="hardAlpha"
      >
      </feColorMatrix>
      <feOffset dy="4"></feOffset>
      <feGaussianBlur stdDeviation="2"></feGaussianBlur>
      <feComposite in2="hardAlpha" operator="out"></feComposite>
      <feColorMatrix
        type="matrix"
        values="0 0 0 0 0 0 0 0 0 0 0 0 0 0 0 0 0 0 0.25 0"
      >
      </feColorMatrix>
      <feBlend
        mode="normal"
        in2="BackgroundImageFix"
        result="effect1_dropShadow_8_5"
      >
      </feBlend>
      <feBlend
        mode="normal"
        in="SourceGraphic"
        in2="effect1_dropShadow_8_5"
        result="shape"
      >
      </feBlend>
    </filter>
  </defs>
</svg>

